<?xml version="1.0" encoding="UTF-8"?>
<!DOCTYPE svg PUBLIC "-//W3C//DTD SVG 1.1//EN" "http://www.w3.org/Graphics/SVG/1.1/DTD/svg11.dtd">
<!-- Creator: CorelDRAW -->
<svg xmlns="http://www.w3.org/2000/svg" xml:space="preserve" width="2.66666in" height="2.66666in" version="1.1" style="shape-rendering:geometricPrecision; text-rendering:geometricPrecision; image-rendering:optimizeQuality; fill-rule:evenodd; clip-rule:evenodd"
viewBox="0 0 2666.66 2666.66"
 xmlns:xlink="http://www.w3.org/1999/xlink"
 xmlns:xodm="http://www.corel.com/coreldraw/odm/2003">
 <defs>
  <style type="text/css">
   <![CDATA[
    .fil0 {fill:#003C69}
    .fil1 {fill:white}
   ]]>
  </style>
 </defs>
 <g id="Layer_x0020_1">
  <metadata id="CorelCorpID_0Corel-Layer"/>
  <circle class="fil0" cx="1333.33" cy="1333.33" r="1333.33"/>
  <path class="fil1" d="M1787.64 2186.65l-1110.61 0c-11.04,0 -20,-8.97 -20,-20l0 -1439.42c0,-11.04 8.96,-20 20,-20l1110.61 0c11.04,0 20,8.96 20,20l0 1439.42c0.02,11.03 -8.96,20 -20,20zm-128.13 -129.72l-523.56 0c-26.32,0 -26.32,-40 0,-40l523.54 0c26.32,0 26.32,40 0.02,40zm0 -320.61l-523.56 0c-26.32,0 -26.32,-40 0,-40l523.54 0c26.32,0 26.32,40 0.02,40zm0 -320.61l-523.56 0c-26.32,0 -26.32,-40 0,-40l523.54 0c26.32,0 26.32,40 0.02,40zm0 -320.61l-523.56 0c-26.33,0 -26.33,-40 0,-40l523.54 0c26.32,0 26.33,40 0.02,40zm-636.18 961.81l-218.15 0c-11.04,0 -20,-8.97 -20,-20l0 -218.15c0,-11.04 8.96,-20 20,-20l218.15 0c11.04,0 20,8.97 20,20l0 218.15c0,11.04 -8.96,20 -20,20zm-198.15 -40.01l178.15 0 0 -178.14 -178.15 0 0 178.14zm72.12 -36.72c-14.08,0 -30.5,-23.6 -45.5,-39.88 -17.83,-19.37 11.59,-46.49 29.42,-27.1l16.67 18.1 49.94 -49.94c18.65,-18.65 46.89,9.7 28.28,28.3 -19.82,19.8 -63.42,70.52 -78.8,70.52zm126.03 -243.87l-218.15 0c-11.04,0 -20,-8.97 -20,-20l0 -218.15c0,-11.04 8.96,-20 20,-20l218.15 0c11.04,0 20,8.97 20,20l0 218.15c0,11.04 -8.96,20 -20,20zm-198.15 -40.02l178.15 0 0 -178.13 -178.15 0 0 178.13zm72.12 -36.72c-14.09,0 -30.48,-23.57 -45.5,-39.88 -17.83,-19.37 11.59,-46.48 29.42,-27.1l16.67 18.1 49.94 -49.93c18.65,-18.64 46.9,9.69 28.29,28.29 -19.77,19.77 -63.43,70.52 -78.82,70.52zm126.03 -243.86l-218.15 0c-11.04,0 -20,-8.97 -20,-20l0 -218.17c0,-11.04 8.96,-20 20,-20l218.15 0c11.04,0 20,8.96 20,20l0 218.17c0,11.04 -8.96,20 -20,20zm-198.15 -40.01l178.15 0 0 -178.15 -178.15 0 0 178.15zm72.12 -36.74c-14.11,0 -30.39,-23.46 -45.5,-39.86 -17.84,-19.37 11.58,-46.48 29.42,-27.11l16.67 18.1 49.94 -49.93c18.63,-18.63 46.9,9.68 28.28,28.28 -19.85,19.83 -63.41,70.52 -78.8,70.52zm126.03 -243.86l-218.15 0c-11.04,0 -20,-8.96 -20,-20l0 -218.15c0,-11.04 8.96,-20 20,-20l218.15 0c11.04,0 20,8.96 20,20l0 218.15c0,11.05 -8.96,20 -20,20zm-198.15 -40l178.15 0 0 -178.15 -178.15 0 0 178.15zm72.12 -36.74c-14.11,0 -30.39,-23.46 -45.5,-39.86 -17.85,-19.37 11.59,-46.46 29.42,-27.11l16.67 18.1 49.94 -49.93c18.63,-18.63 46.9,9.68 28.28,28.28 -19.86,19.84 -63.41,70.52 -78.8,70.52z"/>
  <path class="fil1" d="M1989.63 1959.43l-148.65 0 0 -1232.2c0,-29.44 -23.89,-53.33 -53.33,-53.33l-928.63 0 0 -173.9c0,-11.04 8.96,-20 20,-20l1110.61 0c11.04,0 20,8.96 20,20l0 1439.42c0.02,11.04 -8.96,20.01 -20,20.01z"/>
 </g>
</svg>
